<svg viewBox="0 0 500 500" xmlns="http://www.w3.org/2000/svg"><g fill="#FFF"><path d="M447.91 109.37c2.7 0 5.2-2.5 5.2-5.21V88.53c0-8.75-7.09-15.625-15.625-15.625H166.652l-3.75-1.67 -28.125-28.96v-.21c-7.09-7.3-16.458-11.25-26.25-11.25H47.27c-23.55 0-42.5 18.95-42.5 42.5v264.87c-.21 20 16.24 36.25 36.24 36.45h5.2c2.7 0 5.2-2.5 5.2-5.21V171.5c0-34.59 27.91-62.5 62.5-62.5l333.95.33Z"/><path d="M458.33 145.83H124.99c-20.208 0-36.458 16.25-36.458 36.459v250c0 20 16.25 36.25 36.458 36.45h333.33c20-.21 36.25-16.46 36.45-36.46v-250c-.21-20.21-16.46-36.459-36.46-36.459Zm-291.667 72.917h250c8.54 0 15.62 6.875 15.62 15.625 0 8.54-7.09 15.625-15.63 15.625h-250c-8.75 0-15.625-7.09-15.625-15.625 0-8.75 6.875-15.625 15.625-15.625Zm93.75 177.08h-93.75c-8.75 0-15.625-7.09-15.625-15.625 0-8.75 6.875-15.625 15.625-15.625h93.75c8.54 0 15.62 6.875 15.62 15.625 0 8.54-7.09 15.625-15.63 15.625Zm0-72.92h-93.75c-8.75 0-15.625-7.09-15.625-15.625 0-8.75 6.875-15.625 15.625-15.625h93.75c8.54 0 15.62 6.875 15.62 15.625 0 8.54-7.09 15.625-15.63 15.625Zm182.29-5.21c0 8.54-7.09 15.625-15.625 15.625 -8.75 0-15.625-7.09-15.625-15.625v-2.61c0-1.46-1.25-2.61-2.61-2.61H393.21c-1.46 0-2.61 1.04-2.61 2.6v57.29c0 1.25 1.04 2.5 2.5 2.5h2.5c8.54 0 15.625 6.875 15.625 15.625 0 8.54-7.09 15.62-15.625 15.62h-41.67c-8.75 0-15.625-7.09-15.625-15.63 0-8.75 6.875-15.625 15.625-15.625h2.6c1.25 0 2.6-1.25 2.6-2.61v-57.3c0-1.46-1.25-2.61-2.61-2.61H340.9c-1.46 0-2.61 1.04-2.61 2.6v2.6c0 8.54-7.09 15.625-15.625 15.625 -8.75 0-15.625-7.09-15.625-15.625v-20.84c0-8.75 6.875-15.63 15.625-15.63h104.16c8.54 0 15.625 6.87 15.625 15.62l.2 20.93Z"/></g></svg>