<svg viewBox="0 0 500 500" xmlns="http://www.w3.org/2000/svg"><defs><clipPath id="a"><path d="M0 0h500v500H0Z"/></clipPath></defs><g clip-path="url(#a)"><path fill="#FFD138" d="M121.99 0h255.97c67.37 0 121.99 54.61 121.99 121.99v255.97c0 67.37-54.62 121.99-121.99 121.99H121.98C54.6 499.95-.01 445.33-.01 377.96V121.98C-.01 54.6 54.6-.01 121.98-.01Z"/><g fill="#1E1E1E"><path d="M379.388 158.292c1.76 0 3.4-1.64 3.4-3.41v-10.21c0-5.72-4.63-10.21-10.21-10.21H195.7l-2.45-1.09 -18.37-18.911v-.14c-4.63-4.77-10.75-7.35-17.15-7.35h-40c-15.38 0-27.76 12.381-27.76 27.75v172.97c-.14 13.06 10.61 23.67 23.67 23.8h3.4c1.76 0 3.4-1.64 3.4-3.41V198.82c0-22.59 18.23-40.82 40.81-40.82l218.094.21Z"/><path d="M386.19 182.1H168.5c-13.2 0-23.81 10.61-23.81 23.8v163.26c0 13.06 10.61 23.67 23.81 23.8h217.68c13.06-.14 23.67-10.75 23.8-23.81V205.88c-.14-13.2-10.75-23.81-23.81-23.81Zm-190.48 47.61h163.26c5.57 0 10.2 4.49 10.2 10.2 0 5.57-4.63 10.2-10.21 10.2H195.69c-5.72 0-10.21-4.63-10.21-10.21 0-5.72 4.49-10.21 10.2-10.21Zm61.22 115.64H195.7c-5.72 0-10.21-4.63-10.21-10.21 0-5.72 4.49-10.21 10.2-10.21h61.22c5.57 0 10.2 4.49 10.2 10.2 0 5.57-4.63 10.2-10.21 10.2Zm0-47.62H195.7c-5.72 0-10.21-4.625-10.21-10.21 0-5.72 4.49-10.21 10.2-10.21h61.22c5.57 0 10.2 4.49 10.2 10.2 0 5.57-4.63 10.2-10.21 10.2Zm119.04-3.41c0 5.57-4.63 10.2-10.21 10.2 -5.72 0-10.21-4.63-10.21-10.21v-1.71c0-.96-.82-1.7-1.71-1.7h-10.21c-.96 0-1.71.68-1.71 1.7v37.41c0 .81.68 1.63 1.63 1.63h1.63c5.57 0 10.2 4.49 10.2 10.2 0 5.57-4.63 10.2-10.21 10.2h-27.22c-5.72 0-10.21-4.63-10.21-10.21 0-5.72 4.49-10.21 10.2-10.21h1.7c.81 0 1.7-.82 1.7-1.71v-37.42c0-.96-.82-1.7-1.7-1.7h-10.21c-.96 0-1.71.68-1.71 1.7v1.7c0 5.57-4.63 10.2-10.21 10.2 -5.72 0-10.21-4.63-10.21-10.21v-13.61c0-5.72 4.49-10.21 10.2-10.21h68.02c5.57 0 10.2 4.48 10.2 10.2l.13 13.67Z"/></g></g></svg>